TITLE ""
FILE "2Q_k_091-100.mp3" MP3
  TRACK 01 AUDIO
    TITLE "2Q_k_091-100_01"
    INDEX 01 00:00:00
  TRACK 02 AUDIO
    TITLE "2Q_k_091-100_02"
    INDEX 01 00:02:23
  TRACK 03 AUDIO
    TITLE "2Q_k_091-100_03"
    INDEX 01 00:02:74
  TRACK 04 AUDIO
    TITLE "2Q_k_091-100_04"
    INDEX 01 00:04:71
  TRACK 05 AUDIO
    TITLE "2Q_k_091-100_05"
    INDEX 01 00:05:41
  TRACK 06 AUDIO
    TITLE "2Q_k_091-100_06"
    INDEX 01 00:09:50
  TRACK 07 AUDIO
    TITLE "2Q_k_091-100_07"
    INDEX 01 00:12:06
  TRACK 08 AUDIO
    TITLE "2Q_k_091-100_08"
    INDEX 01 00:12:51
  TRACK 09 AUDIO
    TITLE "2Q_k_091-100_09"
    INDEX 01 00:14:22
  TRACK 10 AUDIO
    TITLE "2Q_k_091-100_10"
    INDEX 01 00:15:02
  TRACK 11 AUDIO
    TITLE "2Q_k_091-100_11"
    INDEX 01 00:17:22
  TRACK 12 AUDIO
    TITLE "2Q_k_091-100_12"
    INDEX 01 00:17:70
  TRACK 13 AUDIO
    TITLE "2Q_k_091-100_13"
    INDEX 01 00:23:45
  TRACK 14 AUDIO
    TITLE "2Q_k_091-100_14"
    INDEX 01 00:25:18
  TRACK 15 AUDIO
    TITLE "2Q_k_091-100_15"
    INDEX 01 00:25:69
  TRACK 16 AUDIO
    TITLE "2Q_k_091-100_16"
    INDEX 01 00:27:35
  TRACK 17 AUDIO
    TITLE "2Q_k_091-100_17"
    INDEX 01 00:28:05
  TRACK 18 AUDIO
    TITLE "2Q_k_091-100_18"
    INDEX 01 00:29:59
  TRACK 19 AUDIO
    TITLE "2Q_k_091-100_19"
    INDEX 01 00:30:31
  TRACK 20 AUDIO
    TITLE "2Q_k_091-100_20"
    INDEX 01 00:33:06
  TRACK 21 AUDIO
    TITLE "2Q_k_091-100_21"
    INDEX 01 00:36:73
  TRACK 22 AUDIO
    TITLE "2Q_k_091-100_22"
    INDEX 01 00:37:49
  TRACK 23 AUDIO
    TITLE "2Q_k_091-100_23"
    INDEX 01 00:39:08
  TRACK 24 AUDIO
    TITLE "2Q_k_091-100_24"
    INDEX 01 00:39:53
  TRACK 25 AUDIO
    TITLE "2Q_k_091-100_25"
    INDEX 01 00:41:54
  TRACK 26 AUDIO
    TITLE "2Q_k_091-100_26"
    INDEX 01 00:42:24
  TRACK 27 AUDIO
    TITLE "2Q_k_091-100_27"
    INDEX 01 00:46:10
  TRACK 28 AUDIO
    TITLE "2Q_k_091-100_28"
    INDEX 01 00:48:52
  TRACK 29 AUDIO
    TITLE "2Q_k_091-100_29"
    INDEX 01 00:49:22
  TRACK 30 AUDIO
    TITLE "2Q_k_091-100_30"
    INDEX 01 00:51:53
  TRACK 31 AUDIO
    TITLE "2Q_k_091-100_31"
    INDEX 01 00:52:25
  TRACK 32 AUDIO
    TITLE "2Q_k_091-100_32"
    INDEX 01 00:54:35
  TRACK 33 AUDIO
    TITLE "2Q_k_091-100_33"
    INDEX 01 00:55:05
  TRACK 34 AUDIO
    TITLE "2Q_k_091-100_34"
    INDEX 01 00:57:38
  TRACK 35 AUDIO
    TITLE "2Q_k_091-100_35"
    INDEX 01 00:58:55
  TRACK 36 AUDIO
    TITLE "2Q_k_091-100_36"
    INDEX 01 00:59:25
  TRACK 37 AUDIO
    TITLE "2Q_k_091-100_37"
    INDEX 01 01:01:63
  TRACK 38 AUDIO
    TITLE "2Q_k_091-100_38"
    INDEX 01 01:02:31
  TRACK 39 AUDIO
    TITLE "2Q_k_091-100_39"
    INDEX 01 01:05:35
  TRACK 40 AUDIO
    TITLE "2Q_k_091-100_40"
    INDEX 01 01:06:07
  TRACK 41 AUDIO
    TITLE "2Q_k_091-100_41"
    INDEX 01 01:09:00
  TRACK 42 AUDIO
    TITLE "2Q_k_091-100_42"
    INDEX 01 01:14:73
  TRACK 43 AUDIO
    TITLE "2Q_k_091-100_43"
    INDEX 01 01:15:43
  TRACK 44 AUDIO
    TITLE "2Q_k_091-100_44"
    INDEX 01 01:16:74
  TRACK 45 AUDIO
    TITLE "2Q_k_091-100_45"
    INDEX 01 01:17:44
  TRACK 46 AUDIO
    TITLE "2Q_k_091-100_46"
    INDEX 01 01:19:41
  TRACK 47 AUDIO
    TITLE "2Q_k_091-100_47"
    INDEX 01 01:20:11
  TRACK 48 AUDIO
    TITLE "2Q_k_091-100_48"
    INDEX 01 01:22:42
  TRACK 49 AUDIO
    TITLE "2Q_k_091-100_49"
    INDEX 01 01:26:61
  TRACK 50 AUDIO
    TITLE "2Q_k_091-100_50"
    INDEX 01 01:27:31
  TRACK 51 AUDIO
    TITLE "2Q_k_091-100_51"
    INDEX 01 01:29:22
  TRACK 52 AUDIO
    TITLE "2Q_k_091-100_52"
    INDEX 01 01:29:73
  TRACK 53 AUDIO
    TITLE "2Q_k_091-100_53"
    INDEX 01 01:31:50
  TRACK 54 AUDIO
    TITLE "2Q_k_091-100_54"
    INDEX 01 01:32:20
  TRACK 55 AUDIO
    TITLE "2Q_k_091-100_55"
    INDEX 01 01:36:01
  TRACK 56 AUDIO
    TITLE "2Q_k_091-100_56"
    INDEX 01 01:38:64
  TRACK 57 AUDIO
    TITLE "2Q_k_091-100_57"
    INDEX 01 01:39:34
  TRACK 58 AUDIO
    TITLE "2Q_k_091-100_58"
    INDEX 01 01:41:10
  TRACK 59 AUDIO
    TITLE "2Q_k_091-100_59"
    INDEX 01 01:41:53
  TRACK 60 AUDIO
    TITLE "2Q_k_091-100_60"
    INDEX 01 01:43:67
  TRACK 61 AUDIO
    TITLE "2Q_k_091-100_61"
    INDEX 01 01:44:37
  TRACK 62 AUDIO
    TITLE "2Q_k_091-100_62"
    INDEX 01 01:46:42
  TRACK 63 AUDIO
    TITLE "2Q_k_091-100_63"
    INDEX 01 01:48:74
  TRACK 64 AUDIO
    TITLE "2Q_k_091-100_64"
    INDEX 01 01:49:46
  TRACK 65 AUDIO
    TITLE "2Q_k_091-100_65"
    INDEX 01 01:51:24
  TRACK 66 AUDIO
    TITLE "2Q_k_091-100_66"
    INDEX 01 01:51:73
  TRACK 67 AUDIO
    TITLE "2Q_k_091-100_67"
    INDEX 01 01:54:26
  TRACK 68 AUDIO
    TITLE "2Q_k_091-100_68"
    INDEX 01 01:54:71
  TRACK 69 AUDIO
    TITLE "2Q_k_091-100_69"
    INDEX 01 02:00:42
  TRACK 70 AUDIO
    TITLE "2Q_k_091-100_70"
    INDEX 01 02:03:66
